<svg xmlns="http://www.w3.org/2000/svg" width="104" height="104"><g fill="none" fill-rule="evenodd"><path fill="#CEDDFF" d="M83.862 44.717c0 21.62-17.526 39.145-39.145 39.145-21.62 0-39.146-17.526-39.146-39.145 0-21.62 17.526-39.146 39.146-39.146s39.144 17.526 39.144 39.146"/><path fill="#6C99FF" d="M44.717 83.862V5.571c26.097 11.684 39.144 24.733 39.144 39.146S70.814 72.178 44.717 83.861z"/><path fill="#002F34" d="M45.035 75.214c-16.64 0-30.178-13.538-30.178-30.179 0-16.64 13.538-30.178 30.178-30.178s30.179 13.537 30.179 30.178-13.539 30.179-30.179 30.179zm47.493 10.747l-16.532-16.53C81.303 62.71 84.5 54.247 84.5 45.036c0-21.761-17.704-39.465-39.465-39.465-21.76 0-39.464 17.703-39.464 39.464s17.703 39.466 39.464 39.466c9.21 0 17.674-3.197 24.395-8.504l16.533 16.532 5.9 5.9h6.565v-6.565l-5.9-5.9z"/><path fill="#002F34" d="M36.523 29.241a9.104 9.104 0 10.002 18.208 9.104 9.104 0 00-.002-18.209m0 6.373a2.734 2.734 0 012.731 2.731 2.734 2.734 0 01-2.73 2.731 2.734 2.734 0 01-2.732-2.73 2.734 2.734 0 012.731-2.732m14.566 1.668l6.526 6.525h2.578v-2.578l-6.526-6.525h-2.578z"/><path fill="#002F34" d="M60.193 37.281l-6.526 6.525h-2.578v-2.578l6.526-6.525h2.578zM44.916 63.834c-.118 0-.236 0-.355-.003-7.98-.153-13.278-5.456-13.5-5.682l2.702-2.196-1.35 1.098 1.347-1.101c.044.044 4.523 4.48 10.914 4.586 4.374.067 8.725-1.88 12.92-5.805l2.599 2.298c-4.829 4.517-9.967 6.805-15.277 6.805"/></g></svg>