<svg width="54" height="54" xmlns="http://www.w3.org/2000/svg" xmlns:xlink="http://www.w3.org/1999/xlink"><defs><path id="a" d="M0 .003h53.712v53.711H0z"/><path id="c" d="M0 .003h27.199v53.711H0z"/></defs><g transform="translate(-5 -5)" fill="none" fill-rule="evenodd"><g transform="rotate(45 23.14 35.832)"><mask id="b" fill="#fff"><use xlink:href="#a"/></mask><path d="M26.856.003c14.832 0 26.856 12.023 26.856 26.855S41.688 53.714 26.856 53.714c-10.467 0-19.535-5.988-23.966-14.725 1.442-1.196 2.38-3.144 2.38-5.344 0-1.917-.713-3.643-1.851-4.845a7.28 7.28 0 001.769-3.005c.622-2.048.324-4.13-.644-5.685.886-.586 1.607-1.521 1.965-2.683.695-2.252-.223-4.558-2.063-5.373C9.252 4.792 17.495.003 26.856.003z" fill="#FFCE32" mask="url(#b)"/><path d="M42.535 27.504c0 1.451.65 2.628 2.1 2.628a2.629 2.629 0 100-5.257c-1.45 0-2.1 1.177-2.1 2.629z" fill="#002F34" mask="url(#b)"/></g><path d="M34.7 45.206a3.657 3.657 0 10-5.172 5.171 3.657 3.657 0 005.172-5.171" fill="#002F34"/><g transform="rotate(45 23.14 35.832)"><mask id="d" fill="#fff"><use xlink:href="#c"/></mask><path d="M27.199.003v53.711c-10.61 0-19.8-5.997-24.283-14.746 1.427-1.199 2.353-3.136 2.353-5.323 0-1.917-.712-3.643-1.85-4.845a7.28 7.28 0 001.769-3.005c.622-2.048.324-4.13-.644-5.685.886-.586 1.607-1.521 1.965-2.683.689-2.234-.209-4.52-2.02-5.353C9.356 4.8 17.71.003 27.2.003z" fill="#FFE48D" mask="url(#d)"/></g><path d="M33.912 30.971a2.171 2.171 0 10-3.071 3.071 2.171 2.171 0 003.07-3.07" fill="#002F34"/><path d="M30.963 30.865c-.848.848-.884 2.187-.08 2.99l3.07-3.07c-.803-.804-2.142-.768-2.99.08" fill="#406367"/><path d="M50.627 29.518a4.685 4.685 0 10-6.626 6.626 4.685 4.685 0 006.626-6.626" fill="#002F34"/><path d="M33.455 16.603a2.057 2.057 0 10-2.91 2.909 2.057 2.057 0 002.91-2.91M15.314 29.943c-1.026 1.026-1.4 2.318-.373 3.344a2.629 2.629 0 103.718-3.717c-1.027-1.027-2.318-.654-3.345.373z" fill="#406367"/><path d="M46.58 17.649a3.314 3.314 0 10-4.687 4.687 3.314 3.314 0 004.687-4.687" fill="#002F34"/><path d="M41.893 17.649c-1.295 1.294-1.33 3.357-.081 4.606l4.687-4.687c-1.25-1.25-3.312-1.213-4.606.08" fill="#406367"/><path d="M22.336 41.893a3.314 3.314 0 10-4.687 4.687 3.314 3.314 0 004.687-4.687" fill="#002F34"/><path d="M22.336 17.649a3.314 3.314 0 10-4.687 4.687 3.314 3.314 0 004.687-4.687m-4.687 24.244c-1.294 1.294-1.33 3.356-.08 4.606l4.686-4.687c-1.25-1.25-3.312-1.214-4.606.08" fill="#406367"/><circle fill="#D2B982" cx="8.229" cy="19.429" r="1.371"/><circle fill="#71674E" cx="15.086" cy="9.829" r="1"/><circle fill="#71674E" cx="12.343" cy="15.314" r="1"/></g></svg>